<svg xmlns="http://www.w3.org/2000/svg" viewBox="0 0 1645.45 1450"><defs><style>.cls-1{fill:#aaa;}.cls-2,.cls-6{fill:#949494;}.cls-3{fill:#a6a6a6;}.cls-4{fill:#c4c4c4;}.cls-5{fill:#c8c8c8;}.cls-6{fill-opacity:0.67;}.cls-7{fill:#a3a3a3;}.cls-8{fill:#ddd;}.cls-9{fill:#b6b6b6;}.cls-10,.cls-12{fill:#8f8f8f;}.cls-11{fill:#878787;}.cls-12{fill-opacity:0.49;}.cls-13{fill:#dbdbdb;}.cls-14{fill:#b5b5b5;}.cls-15{fill:#d3d3d3;}.cls-16{fill:#efefef;}.cls-17{fill:#a4a4a4;}.cls-18{fill:#b2b2b2;}.cls-19{fill:#8a8a8a;}.cls-20{fill:#adadad;}.cls-21{fill:#959595;}.cls-22{fill:#bbb;}.cls-23{fill:#ccc;}.cls-24{fill:#9c9c9c;}.cls-25{fill:#9d9d9d;}.cls-26{fill:#d1d1d1;}.cls-27{fill:#bdbdbd;}.cls-28{fill:#939393;}.cls-29{fill:#a0a0a0;}</style></defs><title>building</title><g id="Layer_2" data-name="Layer 2"><g id="Layer_2-2" data-name="Layer 2"><g id="g14233"><path id="path7440-0-3" class="cls-1" d="M822.72,1300l822.72-475L822.72,350,0,825Z"/><path id="path7446-3-9" class="cls-2" d="M866,1175l216.51-25,562.92-325L1125.83,525l-866,300Z"/><g id="g6505-0-0-1-2"><path id="path6496-9-8-9-5" class="cls-3" d="M1299,825v50l86.6-50V775Z"/><path id="path6498-7-2-9-4" class="cls-4" d="M1299,825l-43.3-25v50l43.3,25Z"/><path id="path6500-4-78-2-5" class="cls-5" d="M1299,825l86.6-50-43.3-25-86.6,50,43.3,25"/></g><path id="path11211-0" class="cls-6" d="M181.87,880l233.83,35-60.62-85H181.87l-43.3,25Z"/><g id="g6505-9-4-0"><path id="path6496-8-5-9" class="cls-3" d="M303.11,800v50l86.6-50V750Z"/><path id="path6498-3-9-0" class="cls-4" d="M303.11,800l-43.3-25v50l43.3,25Z"/><path id="path6500-48-4-4" class="cls-5" d="M303.11,800l86.6-50-43.3-25-86.6,50,43.3,25"/></g><path id="path5606-1-6" class="cls-4" d="M303.11,750,779.42,475V575L303.11,850Z"/><path id="path5604-0-0-5" class="cls-4" d="M779.42,525l562.92,325V750L779.42,425Z"/><path id="path5596-3-0" class="cls-4" d="M346.41,275,822.72,550v600L346.41,875Z"/><path id="path5598-1-8" class="cls-7" d="M822.72,550,1299,275V875L822.72,1150Z"/><path id="path5602-4-8" class="cls-8" d="M346.41,275,822.72,550,1299,275,822.72,0Z"/><path id="path5604-8-8" class="cls-4" d="M303.11,850l519.62,300V1050L303.11,750Z"/><path id="path5606-6-3-3" class="cls-7" d="M822.72,1050l519.62-300V850L822.72,1150Z"/><path id="path5661-6-7" class="cls-9" d="M303.11,750l43.3-5,476.31,275v30Z"/><path id="path5663-8-5" class="cls-9" d="M346.41,745V725l-43.3,25Z"/><path id="path5665-3-7" class="cls-10" d="M822.72,1020,1299,745l43.3,5L822.72,1050Z"/><path id="path5667-2-3" class="cls-11" d="M1299,725v20l43.3,5Z"/><path id="path8002-2-6" class="cls-12" d="M519.62,275,822.72,450h173.2L1299,275,1039.23,125,822.72,100Z"/><g id="g7893-6-7"><path id="path6224-2-4" class="cls-13" d="M519.62,225,822.72,400l303.11-175L822.72,50Z"/><path id="path6226-3-4" class="cls-4" d="M822.72,400v50L519.62,275V225Z"/><path id="path6228-7-8" class="cls-7" d="M822.72,400v50l303.11-175V225Z"/></g><g id="g7387-7-5-5"><g id="g7343-0-1-2"><path id="path7285-76-4-9" class="cls-14" d="M788.08,770v20l-52-30V740Z"/><path id="path7285-0-7-7-9" class="cls-14" d="M701.48,720v20l-52-30V690Z"/><path id="path7285-3-8-1-1" class="cls-14" d="M614.88,670v20l-52-30V640Z"/><path id="path7285-3-4-90-1-0" class="cls-14" d="M528.28,620v20l-52-30V590Z"/><path id="path7285-3-4-8-6-3-8" class="cls-14" d="M441.67,570v20l-52-30V540Z"/></g><g id="g7343-7-8-0-6"><path id="path7285-7-8-1-4" class="cls-14" d="M788.08,920v20l-52-30V890Z"/><path id="path7285-0-3-3-9-1" class="cls-14" d="M701.48,870v20l-52-30V840Z"/><path id="path7285-3-9-0-1-8" class="cls-14" d="M614.88,820v20l-52-30V790Z"/><path id="path7285-3-4-9-2-6-5" class="cls-14" d="M528.28,770v20l-52-30V740Z"/><path id="path7285-3-4-8-5-3-8-9" class="cls-14" d="M441.67,720v20l-52-30V690Z"/></g></g><g id="g6266-9-3"><path id="path6230-0-4" class="cls-15" d="M389.71,450V550L433,575V475Z"/><path id="path6232-74-6" class="cls-7" d="M433,475l8.66-5V570L433,575Z"/><path id="path6234-5-4" class="cls-16" d="M389.71,450l8.66-5,43.3,25L433,475Z"/><path id="path6236-9-9" class="cls-4" d="M398.37,465v80l26,15V480Z"/><path id="path6253-3-0" class="cls-17" d="M398.37,465l8.66,5v70l-8.66,5Z"/><path id="path6255-9-0" class="cls-18" d="M407,540l-8.66,5,26,15V550Z"/><path id="path6257-17-8" class="cls-19" d="M407,470v70l17.32,10V480Z"/></g><g id="g6266-0-94-4"><path id="path6230-6-4-3" class="cls-15" d="M476.31,500V600l43.3,25V525Z"/><path id="path6232-7-5-9" class="cls-7" d="M519.61,525l8.66-5V620l-8.66,5Z"/><path id="path6234-3-0-0" class="cls-16" d="M476.31,500l8.66-5,43.3,25-8.66,5Z"/><path id="path6236-6-6-1" class="cls-4" d="M485,515v80l26,15V530Z"/><path id="path6253-1-9-6" class="cls-17" d="M485,515l8.66,5v70L485,595Z"/><path id="path6255-5-2-9" class="cls-18" d="M493.63,590,485,595l26,15V600Z"/><path id="path6257-2-93-5" class="cls-19" d="M493.63,520v70L511,600V530Z"/></g><g id="g6266-7-2-3"><path id="path6230-4-8-5" class="cls-15" d="M562.92,550V650l43.3,25V575Z"/><path id="path6232-3-5-2" class="cls-7" d="M606.22,575l8.66-5V670l-8.66,5Z"/><path id="path6234-2-6-9" class="cls-16" d="M562.92,550l8.66-5,43.3,25-8.66,5Z"/><path id="path6236-4-4-8" class="cls-4" d="M571.58,565v80l26,15V580Z"/><path id="path6253-5-2-7" class="cls-17" d="M571.58,565l8.66,5v70l-8.66,5Z"/><path id="path6255-2-9-6" class="cls-18" d="M580.24,640l-8.66,5,26,15V650Z"/><path id="path6257-1-9-5" class="cls-19" d="M580.24,570v70l17.32,10V580Z"/></g><g id="g6266-4-8-5"><path id="path6230-7-5-1" class="cls-15" d="M649.52,600V700l43.3,25V625Z"/><path id="path6232-1-6-1" class="cls-7" d="M692.82,625l8.66-5V720l-8.66,5Z"/><path id="path6234-4-4-5" class="cls-16" d="M649.52,600l8.66-5,43.3,25-8.66,5Z"/><path id="path6236-7-4-6" class="cls-4" d="M658.18,615v80l26,15V630Z"/><path id="path6253-4-6-7" class="cls-17" d="M658.18,615l8.66,5v70l-8.66,5Z"/><path id="path6255-3-7-6" class="cls-18" d="M666.84,690l-8.66,5,26,15V700Z"/><path id="path6257-15-08-5" class="cls-19" d="M666.84,620v70l17.32,10V630Z"/></g><g id="g6266-44-1-0"><path id="path6230-8-4-5" class="cls-15" d="M736.12,650V750l43.3,25V675Z"/><path id="path6232-34-80-7" class="cls-7" d="M779.42,675l8.66-5V770l-8.66,5Z"/><path id="path6234-26-7-1" class="cls-16" d="M736.12,650l8.66-5,43.3,25-8.66,5Z"/><path id="path6236-2-5-1" class="cls-4" d="M744.78,665v80l26,15V680Z"/><path id="path6253-2-84-1" class="cls-17" d="M744.78,665l8.66,5v70l-8.66,5Z"/><path id="path6255-0-91-3" class="cls-18" d="M753.44,740l-8.66,5,26,15V750Z"/><path id="path6257-16-42-2" class="cls-19" d="M753.44,670v70l17.32,10V680Z"/></g><g id="g6266-2-5-6"><path id="path6230-1-1-8" class="cls-15" d="M389.71,600V700L433,725V625Z"/><path id="path6232-77-7-5" class="cls-7" d="M433,625l8.66-5V720L433,725Z"/><path id="path6234-1-3-4" class="cls-16" d="M389.71,600l8.66-5,43.3,25L433,625Z"/><path id="path6236-42-3-9" class="cls-4" d="M398.37,615v80l26,15V630Z"/><path id="path6253-50-2-6" class="cls-17" d="M398.37,615l8.66,5v70l-8.66,5Z"/><path id="path6255-32-6-3" class="cls-18" d="M407,690l-8.66,5,26,15V700Z"/><path id="path6257-21-2-4" class="cls-19" d="M407,620v70l17.32,10V630Z"/></g><g id="g6266-0-9-6-6"><path id="path6230-6-5-3-5" class="cls-15" d="M476.31,650V750l43.3,25V675Z"/><path id="path6232-7-9-2-9" class="cls-7" d="M519.61,675l8.66-5V770l-8.66,5Z"/><path id="path6234-3-5-2-0" class="cls-16" d="M476.31,650l8.66-5,43.3,25-8.66,5Z"/><path id="path6236-6-5-1-9" class="cls-4" d="M485,665v80l26,15V680Z"/><path id="path6253-1-7-7-0" class="cls-17" d="M485,665l8.66,5v70L485,745Z"/><path id="path6255-5-0-6-4" class="cls-18" d="M493.63,740,485,745l26,15V750Z"/><path id="path6257-2-9-6-2" class="cls-19" d="M493.63,670v70L511,750V680Z"/></g><g id="g6266-7-7-4-5"><path id="path6230-4-7-4-7" class="cls-15" d="M562.92,700V800l43.3,25V725Z"/><path id="path6232-3-2-6-6" class="cls-7" d="M606.22,725l8.66-5V820l-8.66,5Z"/><path id="path6234-2-9-2-8" class="cls-16" d="M562.92,700l8.66-5,43.3,25-8.66,5Z"/><path id="path6236-4-3-4-7" class="cls-4" d="M571.58,715v80l26,15V730Z"/><path id="path6253-5-3-7-8" class="cls-17" d="M571.58,715l8.66,5v70l-8.66,5Z"/><path id="path6255-2-8-9-2" class="cls-18" d="M580.24,790l-8.66,5,26,15V800Z"/><path id="path6257-1-6-0-2" class="cls-19" d="M580.24,720v70l17.32,10V730Z"/></g><g id="g6266-4-9-1-4"><path id="path6230-7-3-7-8" class="cls-15" d="M649.52,750V850l43.3,25V775Z"/><path id="path6232-1-0-6-3" class="cls-7" d="M692.82,775l8.66-5V870l-8.66,5Z"/><path id="path6234-4-9-2-0" class="cls-16" d="M649.52,750l8.66-5,43.3,25-8.66,5Z"/><path id="path6236-7-2-4-7" class="cls-4" d="M658.18,765v80l26,15V780Z"/><path id="path6253-4-7-1-3" class="cls-17" d="M658.18,765l8.66,5v70l-8.66,5Z"/><path id="path6255-3-2-9-4" class="cls-18" d="M666.84,840l-8.66,5,26,15V850Z"/><path id="path6257-15-0-1-9" class="cls-19" d="M666.84,770v70l17.32,10V780Z"/></g><g id="g6266-44-6-6-9"><path id="path6230-8-6-9-7" class="cls-15" d="M736.12,800V900l43.3,25V825Z"/><path id="path6232-34-0-5-7" class="cls-7" d="M779.42,825l8.66-5V920l-8.66,5Z"/><path id="path6234-26-6-4-0" class="cls-16" d="M736.12,800l8.66-5,43.3,25-8.66,5Z"/><path id="path6236-2-4-7-9" class="cls-4" d="M744.78,815v80l26,15V830Z"/><path id="path6253-2-2-3-5" class="cls-17" d="M744.78,815l8.66,5v70l-8.66,5Z"/><path id="path6255-0-9-2-5" class="cls-18" d="M753.44,890l-8.66,5,26,15V900Z"/><path id="path6257-16-0-1-4" class="cls-19" d="M753.44,820v70l17.32,10V830Z"/></g><g id="g6266-44-0-0-1-6-7-9-6-2-7"><path id="path6230-8-0-9-8-4-3-4-3-7-4" class="cls-20" d="M1351,765V865l-43.3,25V790Z"/><path id="path6232-34-8-6-0-4-1-2-5-3-3" class="cls-21" d="M1307.7,790l-8.66-5V885l8.66,5Z"/><path id="path6234-26-2-8-9-8-5-6-6-1-6" class="cls-22" d="M1351,765l-8.66-5L1299,785l8.66,5Z"/><path id="path6236-2-7-1-7-6-6-6-4-6-9" class="cls-4" d="M1342.34,780v80l-26,15V795Z"/><path id="path6253-2-8-4-0-3-5-4-6-3-8" class="cls-17" d="M1342.34,780l-8.66,5v70l8.66,5Z"/><path id="path6255-0-3-4-3-6-4-2-6-2-7" class="cls-18" d="M1333.68,855l8.66,5-26,15V865Z"/><path id="path6257-16-4-5-7-2-7-9-7-4-1" class="cls-19" d="M1333.68,785v70l-17.32,10V795Z"/></g><g id="g6505-0-6-6"><path id="path6496-9-7-1" class="cls-3" d="M1255.74,900v50l86.6-50V850Z"/><path id="path6498-7-8-9" class="cls-4" d="M1255.74,900l-43.3-25v50l43.3,25Z"/><path id="path6500-4-1-9" class="cls-5" d="M1255.74,900l86.6-50L1299,825l-86.6,50,43.3,25"/></g><g id="g6266-44-0-0-1-6-7-9-7-5"><path id="path6230-8-0-9-8-4-3-4-6-1" class="cls-20" d="M1221.1,830V930l-43.3,25V855Z"/><path id="path6232-34-8-6-0-4-1-2-2-9" class="cls-21" d="M1177.79,855l-8.66-5V950l8.66,5Z"/><path id="path6234-26-2-8-9-8-5-6-5-9" class="cls-22" d="M1221.1,830l-8.66-5-43.3,25,8.66,5Z"/><path id="path6236-2-7-1-7-6-6-6-1-6" class="cls-4" d="M1212.44,845v80l-26,15V860Z"/><path id="path6253-2-8-4-0-3-5-4-2-4" class="cls-17" d="M1212.44,845l-8.66,5v70l8.66,5Z"/><path id="path6255-0-3-4-3-6-4-2-62-6" class="cls-18" d="M1203.78,920l8.66,5-26,15V930Z"/><path id="path6257-16-4-5-7-2-7-9-0-5" class="cls-19" d="M1203.78,850v70l-17.32,10V860Z"/></g><g id="g6505-0-9-0-4"><path id="path6496-9-1-8-2" class="cls-3" d="M1125.83,975v50l86.6-50V925Z"/><path id="path6498-7-7-8-7" class="cls-4" d="M1125.83,975l-43.3-25v50l43.3,25Z"/><path id="path6500-4-7-1-9" class="cls-5" d="M1125.83,975l86.6-50-43.3-25-86.6,50,43.3,25"/></g><g id="g6266-44-0-0-1-6-7-98-0"><path id="path6230-8-0-9-8-4-3-7-7" class="cls-20" d="M1091.19,905v100l-43.3,25V930Z"/><path id="path6232-34-8-6-0-4-1-4-7" class="cls-21" d="M1047.89,930l-8.66-5v100l8.66,5Z"/><path id="path6234-26-2-8-9-8-5-9-6" class="cls-22" d="M1091.19,905l-8.66-5-43.3,25,8.66,5Z"/><path id="path6236-2-7-1-7-6-6-3-8" class="cls-4" d="M1082.53,920v80l-26,15V935Z"/><path id="path6253-2-8-4-0-3-5-1-5" class="cls-17" d="M1082.53,920l-8.66,5v70l8.66,5Z"/><path id="path6255-0-3-4-3-6-4-0-5" class="cls-18" d="M1073.87,995l8.66,5-26,15v-10Z"/><path id="path6257-16-4-5-7-2-7-6-9" class="cls-19" d="M1073.87,925v70l-17.32,10V935Z"/></g><g id="g6505-03-1-5"><path id="path6496-97-1-5" class="cls-3" d="M995.93,1050v50l86.6-50v-50Z"/><path id="path6498-4-7-6" class="cls-4" d="M995.93,1050l-43.3-25v50l43.3,25Z"/><path id="path6500-42-5-1" class="cls-5" d="M995.93,1050l86.6-50-43.3-25-86.6,50,43.3,25"/></g><g id="g6266-44-0-0-1-6-8-7"><path id="path6230-8-0-9-8-4-6-0" class="cls-20" d="M961.29,980v100L918,1105V1005Z"/><path id="path6232-34-8-6-0-4-9-5" class="cls-21" d="M918,1005l-8.66-5v100l8.66,5Z"/><path id="path6234-26-2-8-9-8-7-6" class="cls-22" d="M961.29,980l-8.66-5-43.3,25,8.66,5Z"/><path id="path6236-2-7-1-7-6-1-9" class="cls-4" d="M952.63,995v80l-26,15v-80Z"/><path id="path6253-2-8-4-0-3-8-9" class="cls-17" d="M952.63,995l-8.66,5v70l8.66,5Z"/><path id="path6255-0-3-4-3-6-9-7" class="cls-18" d="M944,1070l8.66,5-26,15v-10Z"/><path id="path6257-16-4-5-7-2-8-8" class="cls-19" d="M944,1000v70l-17.32,10v-70Z"/></g><g id="g6505-97-3"><path id="path6496-3-0" class="cls-3" d="M866,1125v50l86.6-50v-50Z"/><path id="path6498-39-5" class="cls-4" d="M866,1125l-43.3-25v50l43.3,25Z"/><path id="path6500-9-9" class="cls-5" d="M866,1125l86.6-50-43.3-25-86.6,50,43.3,25"/></g><g id="g6614-2-8"><path id="path6212-71-1" class="cls-19" d="M519.62,975V925l43.3,25v50Z"/><path id="path6222-2-6" class="cls-17" d="M519.62,975l8.66,5V940l34.64,20V950l-43.3-25Z"/><path id="path6599-36-6" class="cls-1" d="M562.92,950l-8.66,15L511,940l8.66-15Z"/><path id="path6601-78-6" class="cls-23" d="M545.6,940l-8.66,15,8.66,5,8.66-15Z"/><path id="path6603-5-8" class="cls-23" d="M536.94,935l-8.66,15-8.66-5,8.66-15Z"/></g><g id="g6614-0-4-4"><path id="path6212-9-1-9" class="cls-19" d="M433,925V875l43.3,25v50Z"/><path id="path6222-77-4-0" class="cls-17" d="M433,925l8.66,5V890l34.64,20V900L433,875Z"/><path id="path6599-3-3-3" class="cls-1" d="M476.31,900l-8.66,15-43.3-25L433,875Z"/><path id="path6601-2-4-3" class="cls-23" d="M459,890l-8.66,15,8.66,5,8.66-15Z"/><path id="path6603-1-0-9" class="cls-23" d="M450.33,885l-8.66,15L433,895l8.66-15Z"/></g><g id="g6614-3-9-4"><path id="path6212-3-7-0" class="cls-19" d="M606.22,1025V975l43.3,25v50Z"/><path id="path6222-7-5-7" class="cls-17" d="M606.22,1025l8.66,5V990l34.64,20v-10l-43.3-25Z"/><path id="path6599-1-4-5" class="cls-1" d="M649.52,1000l-8.66,15-43.3-25,8.66-15Z"/><path id="path6601-7-3-8" class="cls-23" d="M632.2,990l-8.66,15,8.66,5,8.66-15Z"/><path id="path6603-2-5-3" class="cls-23" d="M623.54,985l-8.66,15-8.66-5,8.66-15Z"/></g><g id="g6614-7-6-8"><path id="path6212-32-6-3" class="cls-19" d="M692.82,1075v-50l43.3,25v50Z"/><path id="path6222-8-7-1" class="cls-17" d="M692.82,1075l8.66,5v-40l34.64,20v-10l-43.3-25Z"/><path id="path6599-4-2-3" class="cls-1" d="M736.12,1050l-8.66,15-43.3-25,8.66-15Z"/><path id="path6601-9-0-6" class="cls-23" d="M718.8,1040l-8.66,15,8.66,5,8.66-15Z"/><path id="path6603-26-0-7" class="cls-23" d="M710.14,1035l-8.66,15-8.66-5,8.66-15Z"/></g><g id="g6614-8-6-6"><path id="path6212-7-2-8" class="cls-19" d="M346.41,875V825l43.3,25v50Z"/><path id="path6222-1-5-6" class="cls-17" d="M346.41,875l8.66,5V840l34.64,20V850l-43.3-25Z"/><path id="path6599-6-2-2" class="cls-1" d="M389.71,850l-8.66,15-43.3-25,8.66-15Z"/><path id="path6601-76-8-8" class="cls-23" d="M372.39,840l-8.66,15,8.66,5,8.66-15Z"/><path id="path6603-8-5-2" class="cls-23" d="M363.73,835l-8.66,15-8.66-5,8.66-15Z"/></g><g id="g7387-9-6"><g id="g7343-2-9"><path id="path7285-9-5" class="cls-24" d="M857.36,770v20l52-30V740Z"/><path id="path7285-0-72-8" class="cls-24" d="M944,720v20l52-30V690Z"/><path id="path7285-3-0-3" class="cls-24" d="M1030.57,670v20l52-30V640Z"/><path id="path7285-3-4-1-7" class="cls-24" d="M1117.17,620v20l52-30V590Z"/><path id="path7285-3-4-8-2-8" class="cls-24" d="M1203.78,570v20l52-30V540Z"/></g><g id="g7343-7-3-7"><path id="path7285-7-6-2" class="cls-24" d="M857.36,920v20l52-30V890Z"/><path id="path7285-0-3-8-1" class="cls-24" d="M944,870v20l52-30V840Z"/><path id="path7285-3-9-5-0" class="cls-24" d="M1030.57,820v20l52-30V790Z"/><path id="path7285-3-4-9-25-7" class="cls-24" d="M1117.17,770v20l52-30V740Z"/><path id="path7285-3-4-8-5-9-2" class="cls-24" d="M1203.78,720v20l52-30V690Z"/></g></g><g id="g6266-44-0-9-1"><path id="path6230-8-0-4-8" class="cls-20" d="M909.33,650V750L866,775V675Z"/><path id="path6232-34-8-8-8" class="cls-21" d="M866,675l-8.66-5V770l8.66,5Z"/><path id="path6234-26-2-58-8" class="cls-22" d="M909.33,650l-8.66-5-43.3,25,8.66,5Z"/><path id="path6236-2-7-12-1" class="cls-4" d="M900.67,665v80l-26,15V680Z"/><path id="path6253-2-8-5-3" class="cls-17" d="M900.67,665,892,670v70l8.66,5Z"/><path id="path6255-0-3-3-4" class="cls-18" d="M892,740l8.66,5-26,15V750Z"/><path id="path6257-16-4-2-3" class="cls-19" d="M892,670v70l-17.32,10V680Z"/></g><g id="g6266-44-0-0-54-2"><path id="path6230-8-0-9-2-1" class="cls-20" d="M995.93,600V700l-43.3,25V625Z"/><path id="path6232-34-8-6-5-5" class="cls-21" d="M952.63,625,944,620V720l8.66,5Z"/><path id="path6234-26-2-8-5-2" class="cls-22" d="M995.93,600l-8.66-5L944,620l8.66,5Z"/><path id="path6236-2-7-1-1-5" class="cls-4" d="M987.27,615v80l-26,15V630Z"/><path id="path6253-2-8-4-6-1" class="cls-17" d="M987.27,615l-8.66,5v70l8.66,5Z"/><path id="path6255-0-3-4-5-6" class="cls-18" d="M978.61,690l8.66,5-26,15V700Z"/><path id="path6257-16-4-5-5-9" class="cls-19" d="M978.61,620v70l-17.32,10V630Z"/></g><g id="g6266-44-0-03-29-3"><path id="path6230-8-0-7-3-4" class="cls-20" d="M1082.53,550V650l-43.3,25V575Z"/><path id="path6232-34-8-3-4-6" class="cls-21" d="M1039.23,575l-8.66-5V670l8.66,5Z"/><path id="path6234-26-2-4-7-6" class="cls-22" d="M1082.53,550l-8.66-5-43.3,25,8.66,5Z"/><path id="path6236-2-7-9-7-6" class="cls-4" d="M1073.87,565v80l-26,15V580Z"/><path id="path6253-2-8-8-0-0" class="cls-17" d="M1073.87,565l-8.66,5v70l8.66,5Z"/><path id="path6255-0-3-1-3-8" class="cls-18" d="M1065.21,640l8.66,5-26,15V650Z"/><path id="path6257-16-4-6-4-5" class="cls-19" d="M1065.21,570v70l-17.32,10V580Z"/></g><g id="g6266-44-0-0-5-03-2"><path id="path6230-8-0-9-9-1-1" class="cls-20" d="M1169.13,500V600l-43.3,25V525Z"/><path id="path6232-34-8-6-2-2-7" class="cls-21" d="M1125.83,525l-8.66-5V620l8.66,5Z"/><path id="path6234-26-2-8-1-6-4" class="cls-22" d="M1169.13,500l-8.66-5-43.3,25,8.66,5Z"/><path id="path6236-2-7-1-5-9-3" class="cls-4" d="M1160.47,515v80l-26,15V530Z"/><path id="path6253-2-8-4-1-0-6" class="cls-17" d="M1160.47,515l-8.66,5v70l8.66,5Z"/><path id="path6255-0-3-4-6-8-1" class="cls-18" d="M1151.81,590l8.66,5-26,15V600Z"/><path id="path6257-16-4-5-4-58-0" class="cls-19" d="M1151.81,520v70l-17.32,10V530Z"/></g><g id="g6266-44-0-0-5-0-7-8"><path id="path6230-8-0-9-9-0-0-9" class="cls-20" d="M1255.74,450V550l-43.3,25V475Z"/><path id="path6232-34-8-6-2-7-4-1" class="cls-21" d="M1212.44,475l-8.66-5V570l8.66,5Z"/><path id="path6234-26-2-8-1-7-9-7" class="cls-22" d="M1255.74,450l-8.66-5-43.3,25,8.66,5Z"/><path id="path6236-2-7-1-5-5-6-5" class="cls-4" d="M1247.08,465v80l-26,15V480Z"/><path id="path6253-2-8-4-1-1-4-4" class="cls-17" d="M1247.08,465l-8.66,5v70l8.66,5Z"/><path id="path6255-0-3-4-6-3-9-5" class="cls-18" d="M1238.42,540l8.66,5-26,15V550Z"/><path id="path6257-16-4-5-4-5-25-1" class="cls-19" d="M1238.42,470v70l-17.32,10V480Z"/></g><g id="g6266-44-0-5-5-9"><path id="path6230-8-0-1-9-5" class="cls-20" d="M909.33,800V900L866,925V825Z"/><path id="path6232-34-8-0-1-2" class="cls-21" d="M866,825l-8.66-5V920l8.66,5Z"/><path id="path6234-26-2-5-2-3" class="cls-22" d="M909.33,800l-8.66-5-43.3,25,8.66,5Z"/><path id="path6236-2-7-3-0-6" class="cls-4" d="M900.67,815v80l-26,15V830Z"/><path id="path6253-2-8-9-3-1" class="cls-17" d="M900.67,815,892,820v70l8.66,5Z"/><path id="path6255-0-3-6-7-6" class="cls-18" d="M892,890l8.66,5-26,15V900Z"/><path id="path6257-16-4-1-9-7" class="cls-19" d="M892,820v70l-17.32,10V830Z"/></g><g id="g6266-44-0-0-1-2-9"><path id="path6230-8-0-9-8-5-6" class="cls-20" d="M995.93,750V850l-43.3,25V775Z"/><path id="path6232-34-8-6-0-3-5" class="cls-21" d="M952.63,775,944,770V870l8.66,5Z"/><path id="path6234-26-2-8-9-82-2" class="cls-22" d="M995.93,750l-8.66-5L944,770l8.66,5Z"/><path id="path6236-2-7-1-7-1-5" class="cls-4" d="M987.27,765v80l-26,15V780Z"/><path id="path6253-2-8-4-0-6-9" class="cls-17" d="M987.27,765l-8.66,5v70l8.66,5Z"/><path id="path6255-0-3-4-3-0-5" class="cls-18" d="M978.61,840l8.66,5-26,15V850Z"/><path id="path6257-16-4-5-7-1-6" class="cls-19" d="M978.61,770v70l-17.32,10V780Z"/></g><g id="g6266-44-0-03-2-1-4"><path id="path6230-8-0-7-4-2-9" class="cls-20" d="M1082.53,700V800l-43.3,25V725Z"/><path id="path6232-34-8-3-0-4-4" class="cls-21" d="M1039.23,725l-8.66-5V820l8.66,5Z"/><path id="path6234-26-2-4-8-4-4" class="cls-22" d="M1082.53,700l-8.66-5-43.3,25,8.66,5Z"/><path id="path6236-2-7-9-4-2-4" class="cls-4" d="M1073.87,715v80l-26,15V730Z"/><path id="path6253-2-8-8-8-5-7" class="cls-17" d="M1073.87,715l-8.66,5v70l8.66,5Z"/><path id="path6255-0-3-1-6-5-5" class="cls-18" d="M1065.21,790l8.66,5-26,15V800Z"/><path id="path6257-16-4-6-2-3-9" class="cls-19" d="M1065.21,720v70l-17.32,10V730Z"/></g><g id="g6266-44-0-0-5-5-5-1"><path id="path6230-8-0-9-9-07-9-4" class="cls-20" d="M1169.13,650V750l-43.3,25V675Z"/><path id="path6232-34-8-6-2-3-9-1" class="cls-21" d="M1125.83,675l-8.66-5V770l8.66,5Z"/><path id="path6234-26-2-8-1-9-4-0" class="cls-22" d="M1169.13,650l-8.66-5-43.3,25,8.66,5Z"/><path id="path6236-2-7-1-5-7-0-1" class="cls-4" d="M1160.47,665v80l-26,15V680Z"/><path id="path6253-2-8-4-1-15-8-6" class="cls-17" d="M1160.47,665l-8.66,5v70l8.66,5Z"/><path id="path6255-0-3-4-6-5-7-3" class="cls-18" d="M1151.81,740l8.66,5-26,15V750Z"/><path id="path6257-16-4-5-4-8-4-2" class="cls-19" d="M1151.81,670v70l-17.32,10V680Z"/></g><g id="g6266-44-0-0-5-0-5-8-5"><path id="path6230-8-0-9-9-0-3-2-8" class="cls-20" d="M1255.74,600V700l-43.3,25V625Z"/><path id="path6232-34-8-6-2-7-2-1-2" class="cls-21" d="M1212.44,625l-8.66-5V720l8.66,5Z"/><path id="path6234-26-2-8-1-7-0-0-8" class="cls-22" d="M1255.74,600l-8.66-5-43.3,25,8.66,5Z"/><path id="path6236-2-7-1-5-5-7-3-9" class="cls-4" d="M1247.08,615v80l-26,15V630Z"/><path id="path6253-2-8-4-1-1-7-1-7" class="cls-17" d="M1247.08,615l-8.66,5v70l8.66,5Z"/><path id="path6255-0-3-4-6-3-4-0-1" class="cls-18" d="M1238.42,690l8.66,5-26,15V700Z"/><path id="path6257-16-4-5-4-5-2-6-0" class="cls-19" d="M1238.42,620v70l-17.32,10V630Z"/></g><path id="path5661-0-7-1" class="cls-9" d="M303.11,330l43.3-5L822.72,600v30Z"/><path id="path5663-6-9-2" class="cls-9" d="M346.41,325V305l-43.3,25Z"/><path id="path5665-9-1-1" class="cls-10" d="M822.72,600,1299,325l43.3,5L822.72,630Z"/><path id="path5667-4-7-0" class="cls-11" d="M1299,305v20l43.3,5Z"/><path id="path7262-4-3" class="cls-25" d="M822.72,630v40l519.62-300V330Z"/><path id="path7266-2-7" class="cls-26" d="M822.72,630v40L303.11,370V330Z"/><path id="path7268-7-8" class="cls-21" d="M822.72,670v10L1299,405V395Z"/><path id="path7268-6-4-1" class="cls-27" d="M822.72,670v10L346.41,405V395Z"/><path id="path7442-7-6" class="cls-28" d="M822.72,1300v100l822.72-475V825Z"/><path id="path7444-6-1" class="cls-29" d="M0,825V925l822.72,475V1300Z"/><path id="path7448-2-6" class="cls-19" d="M822.72,1400v50l822.72-475V925Z"/><path id="path7448-3-3-7" class="cls-21" d="M822.72,1400v50L0,975V925Z"/><g id="g10714-9-7"><path id="path10292-7-8" class="cls-19" d="M138.56,855V605l43.3,25V880Z"/><path id="path10294-4-0" class="cls-24" d="M181.87,630l43.3-25V855l-43.3,25Z"/><g id="g6505-03-1-5-9-4-5"><path id="path6496-97-1-5-5-7-2" class="cls-3" d="M181.86,680v50l-86.6-50V630Z"/><path id="path6498-4-7-6-5-6-7" class="cls-4" d="M181.86,680l43.3-25v50l-43.3,25Z"/><path id="path6500-42-5-1-9-4-15" class="cls-5" d="M181.86,680l-86.6-50,43.3-25,86.6,50-43.3,25"/></g><g id="g6505-03-1-5-9-6-4-4"><path id="path6496-97-1-5-5-9-35-4" class="cls-3" d="M147.22,590v50l-86.6-50V540Z"/><path id="path6498-4-7-6-5-7-6-9" class="cls-4" d="M147.22,590l43.3-25v50l-43.3,25Z"/><path id="path6500-42-5-1-9-2-7-74" class="cls-5" d="M147.22,590l-86.6-50,43.3-25,86.6,50-43.3,25"/></g><g id="g6505-03-1-5-9-6-5-10-3"><path id="path6496-97-1-5-5-9-3-7-3" class="cls-3" d="M251.15,630v50l-86.6-50V580Z"/><path id="path6498-4-7-6-5-7-4-6-5" class="cls-4" d="M251.15,630l43.3-25v50l-43.3,25Z"/><path id="path6500-42-5-1-9-2-6-6-7" class="cls-5" d="M251.15,630l-86.6-50,43.3-25,86.6,50-43.3,25"/></g><g id="g6505-03-1-5-9-6-5-1-02-7"><path id="path6496-97-1-5-5-9-3-1-9-8" class="cls-3" d="M207.85,545v50l-86.6-50V495Z"/><path id="path6498-4-7-6-5-7-4-4-4-1" class="cls-4" d="M207.85,545l43.3-25v50l-43.3,25Z"/><path id="path6500-42-5-1-9-2-6-2-1-2" class="cls-5" d="M207.85,545l-86.6-50,43.3-25,86.6,50-43.3,25"/></g></g></g></g></g></svg>
