<svg xmlns="http://www.w3.org/2000/svg" viewBox="0 0 1645.45 2350"><defs><style>.cls-1,.cls-26{fill:#aaa;}.cls-2{fill:#939393;}.cls-3{fill:#a0a0a0;}.cls-4{fill:#8a8a8a;}.cls-5{fill:#959595;}.cls-6{fill:#949494;}.cls-7{fill:#9c9c9c;}.cls-8{fill:#a6a6a6;}.cls-9{fill:#c4c4c4;}.cls-10{fill:#c8c8c8;}.cls-11{fill:#ccc;}.cls-12{fill:#a1a1a1;}.cls-13{fill:#898989;}.cls-13,.cls-26{opacity:0.75;}.cls-13,.cls-14,.cls-26{isolation:isolate;}.cls-14{fill:#545454;opacity:0.33;}.cls-15{fill:#989898;fill-opacity:0.71;}.cls-16{fill:#919191;}.cls-17{fill:#7e7e7e;}.cls-18{fill:#eaeaea;}.cls-19{fill:#b6b6b6;}.cls-20{fill:#f0f0f0;}.cls-21{fill:#a5a5a5;}.cls-22{fill:#b9b9b9;}.cls-23{fill:#c1c1c1;}.cls-24{fill:#7c7c7c;}.cls-25{fill:#6b6b6b;}.cls-27{fill:#606060;}.cls-28{fill:#767676;}.cls-29{fill:#6e6e6e;}.cls-30{fill:#c3c3c3;}.cls-31{fill:#494949;}</style></defs><title>tallbuilding3</title><g id="Layer_2" data-name="Layer 2"><g id="Layer_2-2" data-name="Layer 2"><g id="g10141"><g id="g13110-3-4-5-8"><path id="path7440-4-0-3-7-7" class="cls-1" d="M822.72,2200l822.72-475L822.72,1250,0,1725Z"/><path id="path7442-9-38-0-0-0" class="cls-2" d="M822.72,2200v100l822.72-475V1725Z"/><path id="path7444-2-8-3-8-9" class="cls-3" d="M0,1725v100l822.72,475V2200Z"/><path id="path7448-8-2-5-2-5" class="cls-4" d="M822.72,2300v50l822.72-475v-50Z"/><path id="path7448-3-2-6-3-3-9" class="cls-5" d="M822.72,2300v50L0,1875v-50Z"/></g><path id="path7446-0-0-3-8-3" class="cls-6" d="M822.72,2050l16,36,43.3,25,330.41-136,433-250-519.62-300-902,266-86.6,40,43.3,25Z"/><g id="g10714-9-8-4-7-9-2"><path id="path10292-7-5-6-1-5-1" class="cls-4" d="M384.35,1558V1308L341,1333v250Z"/><path id="path10294-4-16-1-3-0-3" class="cls-7" d="M341,1333l-43.3-25v250l43.3,25Z"/><g id="g6505-03-1-5-9-4-8-1-7-7-0"><path id="path6496-97-1-5-5-7-6-9-4-8-9" class="cls-8" d="M341,1383v50l86.6-50v-50Z"/><path id="path6498-4-7-6-5-6-4-3-7-1-8" class="cls-9" d="M341,1383l-43.3-25v50l43.3,25Z"/><path id="path6500-42-5-1-9-4-2-2-0-0-9" class="cls-10" d="M341,1383l86.6-50-43.3-25-86.6,50,43.3,25"/></g><g id="g6505-03-1-5-9-6-4-7-4-4-4-7"><path id="path6496-97-1-5-5-9-35-7-6-4-5-6" class="cls-8" d="M375.69,1293v50l86.6-50v-50Z"/><path id="path6498-4-7-6-5-7-6-2-1-7-8-9" class="cls-9" d="M375.69,1293l-43.3-25v50l43.3,25Z"/><path id="path6500-42-5-1-9-2-7-6-0-8-7-7" class="cls-10" d="M375.69,1293l86.6-50L419,1218l-86.6,50,43.3,25"/></g><g id="g6505-03-1-5-9-6-5-10-7-2-3-0-0"><path id="path6496-97-1-5-5-9-3-7-36-1-5-5-3" class="cls-8" d="M271.77,1333v50l86.6-50v-50Z"/><path id="path6498-4-7-6-5-7-4-6-9-6-9-0-6" class="cls-9" d="M271.77,1333l-43.3-25v50l43.3,25Z"/><path id="path6500-42-5-1-9-2-6-6-4-7-5-6-6" class="cls-10" d="M271.77,1333l86.6-50-43.3-25-86.6,50,43.3,25"/></g><g id="g6505-03-1-5-9-6-5-1-02-1-9-9-5-4"><path id="path6496-97-1-5-5-9-3-1-9-2-3-5-6-4" class="cls-8" d="M315.07,1248v50l86.6-50v-50Z"/><path id="path6498-4-7-6-5-7-4-4-4-6-0-1-4-2" class="cls-9" d="M315.07,1248l-43.3-25v50l43.3,25Z"/><path id="path6500-42-5-1-9-2-6-2-1-9-6-0-9-5" class="cls-10" d="M315.07,1248l86.6-50-43.3-25-86.6,50,43.3,25"/></g></g><g id="g6505-0-9-0-4-4-6-4-1-2"><path id="path6496-9-1-8-2-2-4-2-6-6" class="cls-8" d="M223.85,1681v50l86.6-50v-50Z"/><path id="path6498-7-7-8-7-7-01-7-2-5" class="cls-9" d="M223.85,1681l-43.3-25v50l43.3,25Z"/><path id="path6500-4-7-1-9-7-7-3-0-7" class="cls-10" d="M223.85,1681l86.6-50-43.3-25-86.6,50,43.3,25"/></g><g id="g10714-9-8-4-6-9"><path id="path10292-7-5-6-0-2" class="cls-4" d="M223.85,1731V1481l-43.3,25v250Z"/><path id="path10294-4-16-1-4-0" class="cls-7" d="M180.54,1506l-43.3-25v250l43.3,25Z"/><g id="g6505-03-1-5-9-4-8-1-6-6"><path id="path6496-97-1-5-5-7-6-9-8-8" class="cls-8" d="M180.55,1556v50l86.6-50v-50Z"/><path id="path6498-4-7-6-5-6-4-3-9-6" class="cls-9" d="M180.55,1556l-43.3-25v50l43.3,25Z"/><path id="path6500-42-5-1-9-4-2-2-1-7" class="cls-10" d="M180.55,1556l86.6-50-43.3-25-86.6,50,43.3,25"/></g><g id="g6505-03-1-5-9-6-4-7-4-6-9"><path id="path6496-97-1-5-5-9-35-7-6-6-2" class="cls-8" d="M215.19,1466v50l86.6-50v-50Z"/><path id="path6498-4-7-6-5-7-6-2-1-2-5" class="cls-9" d="M215.19,1466l-43.3-25v50l43.3,25Z"/><path id="path6500-42-5-1-9-2-7-6-0-5-8" class="cls-10" d="M215.19,1466l86.6-50-43.3-25-86.6,50,43.3,25"/></g><g id="g6505-03-1-5-9-6-5-10-7-2-1-1"><path id="path6496-97-1-5-5-9-3-7-36-1-55-3" class="cls-8" d="M111.26,1506v50l86.6-50v-50Z"/><path id="path6498-4-7-6-5-7-4-6-9-6-3-4" class="cls-9" d="M111.26,1506,68,1481v50l43.3,25Z"/><path id="path6500-42-5-1-9-2-6-6-4-7-7-7" class="cls-10" d="M111.26,1506l86.6-50-43.3-25L68,1481l43.3,25"/></g><g id="g6505-03-1-5-9-6-5-1-02-1-9-5-4"><path id="path6496-97-1-5-5-9-3-1-9-2-3-0-9" class="cls-8" d="M154.56,1421v50l86.6-50v-50Z"/><path id="path6498-4-7-6-5-7-4-4-4-6-0-16-6" class="cls-9" d="M154.56,1421l-43.3-25v50l43.3,25Z"/><path id="path6500-42-5-1-9-2-6-2-1-9-6-5-2" class="cls-10" d="M154.56,1421l86.6-50-43.3-25-86.6,50,43.3,25"/></g></g><path id="path13629-5-5-9-6" class="cls-1" d="M822.72,2050V1750l562.92-325v300Z"/><path id="path13629-2-27-3-9-4" class="cls-11" d="M822.72,2050V1750L259.81,1425v300Z"/><path id="path14197-1-5-8-5" class="cls-1" d="M216.51,1400l606.22,350,606.22-350L822.72,1050Z"/><path id="path14261-1-0-1-1" class="cls-11" d="M216.5,1400v50l606.22,350v-50Z"/><path id="path14261-3-3-8-5-6" class="cls-12" d="M1428.94,1400v50L822.72,1800v-50Z"/><path id="path7268-61-73-3-1-6" class="cls-13" d="M822.72,1800v20l562.92-325v-20Z"/><path id="path7268-61-8-36-2-9-5" class="cls-14" d="M822.72,1800v20L467.65,1605,259.81,1475Z"/><path id="path16262-7-9-6-0-9" class="cls-15" d="M822.72,1700h86.6l519.62-300-43.3-25Z"/><path id="path13629-24-5-9-3-4" class="cls-1" d="M822.72,1700V1400l562.92-325v300Z"/><path id="path13629-2-4-7-7-5-8" class="cls-11" d="M822.72,1700V1400L259.81,1075v300Z"/><path id="path14197-8-1-3-4-1" class="cls-1" d="M216.5,1050l606.22,350,606.22-350L822.72,700Z"/><path id="path14261-8-1-9-3-7" class="cls-11" d="M216.5,1050v50l606.22,350v-50Z"/><path id="path14261-3-4-2-5-1-7" class="cls-12" d="M1428.94,1050v50L822.72,1450v-50Z"/><path id="path7268-61-9-7-1-7-3" class="cls-13" d="M822.72,1450v20l562.92-325v-20Z"/><path id="path7268-61-8-3-0-2-8-1" class="cls-14" d="M822.72,1450v20L485,1265,259.81,1125Z"/><path id="path13629-24-1-1-49-6-8" class="cls-1" d="M822.72,1350V1050l562.92-325v300Z"/><path id="path13629-2-4-0-6-2-2-2" class="cls-11" d="M822.72,1350V1050L259.81,725v300Z"/><path id="path14197-8-8-0-8-5-3" class="cls-1" d="M216.5,700l606.22,350,606.22-350L822.72,350Z"/><path id="path14261-8-4-5-1-4-1" class="cls-11" d="M216.5,700v50l606.22,350v-50Z"/><path id="path14261-3-4-8-2-5-5-2" class="cls-12" d="M1428.94,700v50L822.72,1100v-50Z"/><path id="path7268-61-9-1-0-9-2-8" class="cls-13" d="M822.72,1100v20l562.92-325V775Z"/><path id="path7268-61-8-3-6-9-2-9-4" class="cls-14" d="M822.72,1100v20L485,915,259.81,775Z"/><path id="path16262-1-7-3-8" class="cls-15" d="M822.72,1350h86.6l519.62-300-43.3-25Z"/><g id="g2039-9-2-9-2"><g id="g6614-3-7-0-1-8-7"><path id="path6212-3-0-3-1-8-3" class="cls-16" d="M329.09,1765v-50l43.3,25v50Z"/><path id="path6222-7-5-6-6-4-7" class="cls-17" d="M329.09,1765l8.66,5v-40l34.64,20v-10l-43.3-25Z"/></g><g id="g6614-3-7-2-0-8-2-1"><path id="path6212-3-0-2-8-5-0-4" class="cls-16" d="M381.05,1795v-50l43.3,25v50Z"/><path id="path6222-7-5-72-9-8-3-3" class="cls-17" d="M381.05,1795l8.66,5v-40l34.64,20v-10l-43.3-25Z"/></g><g id="g2002-3-3-8-3"><path id="path1991-74-7-5-0" class="cls-18" d="M320.43,1700v10l103.92,60v-10Z"/><path id="path1993-92-3-6-3" class="cls-19" d="M424.35,1760l8.66-5v10l-8.66,5Z"/><path id="path1995-6-9-5-9" class="cls-20" d="M424.35,1760l8.66-5-103.92-60-8.66,5Z"/></g><path id="path1997-9-0-4-3" class="cls-17" d="M372.39,1750l8.66,5v-10l-8.66-5Z"/></g><g id="g6614-3-7-7-5-9-7-6"><path id="path6212-3-0-8-5-4-33-9" class="cls-16" d="M623.54,1935v-50l43.3,25v50Z"/><path id="path6222-7-5-0-5-0-0-1" class="cls-17" d="M623.54,1935l8.66,5v-40l34.64,20v-10l-43.3-25Z"/></g><g id="g6614-3-7-2-40-3-9-25-6"><path id="path6212-3-0-2-9-2-4-7-3" class="cls-16" d="M675.5,1965v-50l43.3,25v50Z"/><path id="path6222-7-5-72-3-58-3-87-5" class="cls-17" d="M675.5,1965l8.66,5v-40l34.64,20v-10l-43.3-25Z"/></g><g id="g2002-5-1-5-6-3"><path id="path1991-7-3-3-1-6" class="cls-18" d="M614.88,1870v10l103.92,60v-10Z"/><path id="path1993-6-87-0-6-7" class="cls-19" d="M718.8,1930l8.66-5v10l-8.66,5Z"/><path id="path1995-9-5-5-3-6" class="cls-20" d="M718.8,1930l8.66-5-103.92-60-8.66,5Z"/></g><path id="path1997-0-3-9-2-3" class="cls-17" d="M666.84,1920l8.66,5v-10l-8.66-5Z"/><g id="g2039-1-3-0-7-8-0"><g id="g6614-3-7-7-7-5-7-08-1"><path id="path6212-3-0-8-2-6-0-75-1" class="cls-16" d="M476.31,1850v-50l43.3,25v50Z"/><path id="path6222-7-5-0-4-7-6-4-1" class="cls-17" d="M476.31,1850l8.66,5v-40l34.64,20v-10l-43.3-25Z"/></g><g id="g6614-3-7-2-40-2-5-2-3-3"><path id="path6212-3-0-2-9-8-6-5-0-0" class="cls-16" d="M528.27,1880v-50l43.3,25v50Z"/><path id="path6222-7-5-72-3-5-4-6-0-5" class="cls-17" d="M528.27,1880l8.66,5v-40l34.64,20v-10l-43.3-25Z"/></g><g id="g2002-5-2-4-4-8-8"><path id="path1991-7-8-3-1-5-5" class="cls-18" d="M467.65,1785v10l103.92,60v-10Z"/><path id="path1993-6-9-7-4-8-7" class="cls-19" d="M571.58,1845l8.66-5v10l-8.66,5Z"/><path id="path1995-9-6-9-9-0-6" class="cls-20" d="M571.58,1845l8.66-5-103.92-60-8.66,5Z"/></g><path id="path1997-0-8-6-0-2-3" class="cls-17" d="M519.61,1835l8.66,5v-10l-8.66-5Z"/></g><g id="g15462-3-1-8-4-9"><g id="g15283-5-02-8-6-4"><g id="g15842-9-5-2-8-06-78-7-9-5-2"><path id="path14515-6-3-6-5-4-9-3-6-4-3-6" class="cls-21" d="M337.09,1351v20l-43.3-25v-20Z"/><path id="path6230-8-0-9-7-88-9-4-1-2-9-6-8-3-3-2" class="cls-18" d="M285.13,1231v100l43.3,25V1256Z"/><path id="path6232-34-8-6-4-3-6-8-8-5-4-87-25-1-5-0" class="cls-22" d="M328.43,1256l8.66-5v100l-8.66,5Z"/><path id="path6234-26-2-8-92-35-8-5-3-6-2-5-9-4-2-1" class="cls-20" d="M285.13,1231l8.66-5,43.3,25-8.66,5Z"/><path id="path6253-2-8-4-9-0-0-1-1-4-33-94-44-5-6-6" class="cls-22" d="M293.79,1246l8.66,5v70l-8.66,5Z"/><path id="path6255-0-3-4-7-56-6-3-0-6-0-21-5-3-2-9" class="cls-23" d="M302.45,1321l-8.66,5,26,15v-10Z"/><path id="path6257-16-4-5-0-2-4-4-6-2-5-1-2-5-8-7" class="cls-24" d="M302.45,1251v70l17.32,10v-70Z"/></g><g id="g15842-9-5-2-8-06-8-9-0-4-91-7"><path id="path14515-6-3-6-5-4-9-6-2-4-3-1-0" class="cls-21" d="M423.69,1401v20l-43.3-25v-20Z"/><path id="path6230-8-0-9-7-88-9-4-1-2-9-0-6-47-1-2-6" class="cls-18" d="M371.73,1281v100l43.3,25V1306Z"/><path id="path6232-34-8-6-4-3-6-8-8-5-4-6-8-3-8-7-4" class="cls-22" d="M415,1306l8.66-5v100l-8.66,5Z"/><path id="path6234-26-2-8-92-35-8-5-3-6-2-4-8-4-2-5-3" class="cls-20" d="M371.73,1281l8.66-5,43.3,25-8.66,5Z"/><path id="path6253-2-8-4-9-0-0-1-1-4-33-9-2-74-5-3-2" class="cls-22" d="M380.39,1296l8.66,5v70l-8.66,5Z"/><path id="path6255-0-3-4-7-56-6-3-0-6-0-6-1-3-9-7-4" class="cls-23" d="M389.05,1371l-8.66,5,26,15v-10Z"/><path id="path6257-16-4-5-0-2-4-4-6-2-5-8-10-2-3-4-8" class="cls-24" d="M389.05,1301v70l17.32,10v-70Z"/></g></g><g id="g15283-1-53-8-2-7-8"><g id="g15842-9-5-2-8-06-2-27-8-4-8-8"><path id="path14515-6-3-6-5-4-9-8-9-1-4-5-9" class="cls-21" d="M510.29,1451v20L467,1446v-20Z"/><path id="path6230-8-0-9-7-88-9-4-1-2-9-7-26-6-9-06-0" class="cls-18" d="M458.33,1331v100l43.3,25V1356Z"/><path id="path6232-34-8-6-4-3-6-8-8-5-4-0-1-2-1-2-4" class="cls-22" d="M501.63,1356l8.66-5v100l-8.66,5Z"/><path id="path6234-26-2-8-92-35-8-5-3-6-2-8-8-92-6-5-9" class="cls-20" d="M458.33,1331l8.66-5,43.3,25-8.66,5Z"/><path id="path6253-2-8-4-9-0-0-1-1-4-33-93-7-3-9-4-7" class="cls-22" d="M467,1346l8.66,5v70l-8.66,5Z"/><path id="path6255-0-3-4-7-56-6-3-0-6-0-9-53-1-0-9-8" class="cls-23" d="M475.65,1421l-8.66,5,26,15v-10Z"/><path id="path6257-16-4-5-0-2-4-4-6-2-5-0-2-95-2-0-7" class="cls-24" d="M475.65,1351v70L493,1431v-70Z"/></g><g id="g15842-9-5-2-8-06-8-1-8-1-0-0-2"><path id="path14515-6-3-6-5-4-9-6-5-4-5-3-9-4" class="cls-21" d="M596.9,1501v20l-43.3-25v-20Z"/><path id="path6230-8-0-9-7-88-9-4-1-2-9-0-4-13-79-4-0-3" class="cls-18" d="M544.93,1381v100l43.3,25V1406Z"/><path id="path6232-34-8-6-4-3-6-8-8-5-4-6-6-5-3-9-4-0" class="cls-22" d="M588.24,1406l8.66-5v100l-8.66,5Z"/><path id="path6234-26-2-8-92-35-8-5-3-6-2-4-5-21-8-0-4-1" class="cls-20" d="M544.93,1381l8.66-5,43.3,25-8.66,5Z"/><path id="path6253-2-8-4-9-0-0-1-1-4-33-9-9-5-7-8-94-6" class="cls-22" d="M553.59,1396l8.66,5v70l-8.66,5Z"/><path id="path6255-0-3-4-7-56-6-3-0-6-0-6-8-3-1-1-0-3" class="cls-23" d="M562.26,1471l-8.66,5,26,15v-10Z"/><path id="path6257-16-4-5-0-2-4-4-6-2-5-8-7-4-5-2-2-3" class="cls-24" d="M562.26,1401v70l17.32,10v-70Z"/></g></g><g id="g15283-1-5-4-28-2-5-5"><g id="g15842-9-5-2-8-06-2-2-4-0-6-4-9"><path id="path14515-6-3-6-5-4-9-8-5-5-3-2-0-9" class="cls-21" d="M683.5,1551v20l-43.3-25v-20Z"/><path id="path6230-8-0-9-7-88-9-4-1-2-9-7-2-1-9-3-3-1" class="cls-18" d="M631.54,1431v100l43.3,25V1456Z"/><path id="path6232-34-8-6-4-3-6-8-8-5-4-0-5-95-9-2-6-8" class="cls-22" d="M674.84,1456l8.66-5v100l-8.66,5Z"/><path id="path6234-26-2-8-92-35-8-5-3-6-2-8-9-3-36-9-3-6" class="cls-20" d="M631.54,1431l8.66-5,43.3,25-8.66,5Z"/><path id="path6253-2-8-4-9-0-0-1-1-4-33-93-2-7-22-1-8-1" class="cls-22" d="M640.2,1446l8.66,5v70l-8.66,5Z"/><path id="path6255-0-3-4-7-56-6-3-0-6-0-9-9-3-4-0-1-4" class="cls-23" d="M648.86,1521l-8.66,5,26,15v-10Z"/><path id="path6257-16-4-5-0-2-4-4-6-2-5-0-7-0-0-1-3-5" class="cls-24" d="M648.86,1451v70l17.32,10v-70Z"/></g><g id="g15842-9-5-2-8-06-8-1-2-2-4-4-11-2"><path id="path14515-6-3-6-5-4-9-6-5-3-6-7-7-3-7" class="cls-21" d="M770.1,1601v20l-43.3-25v-20Z"/><path id="path6230-8-0-9-7-88-9-4-1-2-9-0-4-1-3-9-2-4-9" class="cls-18" d="M718.14,1481v100l43.3,25V1506Z"/><path id="path6232-34-8-6-4-3-6-8-8-5-4-6-6-2-4-2-7-18-1" class="cls-22" d="M761.44,1506l8.66-5v100l-8.66,5Z"/><path id="path6234-26-2-8-92-35-8-5-3-6-2-4-5-6-6-7-5-9-8" class="cls-20" d="M718.14,1481l8.66-5,43.3,25-8.66,5Z"/><path id="path6253-2-8-4-9-0-0-1-1-4-33-9-9-2-2-97-1-6-2" class="cls-22" d="M726.8,1496l8.66,5v70l-8.66,5Z"/><path id="path6255-0-3-4-7-56-6-3-0-6-0-6-8-7-7-81-8-48-5" class="cls-23" d="M735.46,1571l-8.66,5,26,15v-10Z"/><path id="path6257-16-4-5-0-2-4-4-6-2-5-8-7-1-39-0-4-7-0" class="cls-24" d="M735.46,1501v70l17.32,10v-70Z"/></g></g></g><g id="g15283-5-0-5-5-3-6"><g id="g15842-9-5-2-8-06-78-9-9-0-2-6"><path id="path14515-6-3-6-5-4-9-3-5-1-1-4-8" class="cls-21" d="M336.43,1006v20l-43.3-25V981Z"/><path id="path6230-8-0-9-7-88-9-4-1-2-9-6-4-8-1-49-6" class="cls-18" d="M284.47,886V986l43.3,25V911Z"/><path id="path6232-34-8-6-4-3-6-8-8-5-4-87-2-6-6-3-2" class="cls-22" d="M327.77,911l8.66-5v100l-8.66,5Z"/><path id="path6234-26-2-8-92-35-8-5-3-6-2-5-4-9-44-0-5" class="cls-20" d="M284.47,886l8.66-5,43.3,25-8.66,5Z"/><path id="path6253-2-8-4-9-0-0-1-1-4-33-94-3-8-9-5-7" class="cls-22" d="M293.13,901l8.66,5v70l-8.66,5Z"/><path id="path6255-0-3-4-7-56-6-3-0-6-0-21-4-4-3-6-1" class="cls-23" d="M301.79,976l-8.66,5,26,15V986Z"/><path id="path6257-16-4-5-0-2-4-4-6-2-5-1-3-2-2-3-4" class="cls-24" d="M301.79,906v70l17.32,10V916Z"/></g><g id="g15842-9-5-2-8-06-8-9-2-6-0-3-8"><path id="path14515-6-3-6-5-4-9-6-2-3-2-41-2-2" class="cls-21" d="M423,1056v20l-43.3-25v-20Z"/><path id="path6230-8-0-9-7-88-9-4-1-2-9-0-6-4-0-8-2-0" class="cls-18" d="M371.07,936v100l43.3,25V961Z"/><path id="path6232-34-8-6-4-3-6-8-8-5-4-6-8-5-4-0-8-9" class="cls-22" d="M414.37,961l8.66-5v100l-8.66,5Z"/><path id="path6234-26-2-8-92-35-8-5-3-6-2-4-8-1-1-0-3-7" class="cls-20" d="M371.07,936l8.66-5L423,956l-8.66,5Z"/><path id="path6253-2-8-4-9-0-0-1-1-4-33-9-2-7-9-6-9-1" class="cls-22" d="M379.73,951l8.66,5v70l-8.66,5Z"/><path id="path6255-0-3-4-7-56-6-3-0-6-0-6-1-4-0-84-3-2" class="cls-23" d="M388.39,1026l-8.66,5,26,15v-10Z"/><path id="path6257-16-4-5-0-2-4-4-6-2-5-8-10-4-3-8-9-5" class="cls-24" d="M388.39,956v70l17.32,10V966Z"/></g></g><g id="g15283-1-53-6-6-1-3-5"><g id="g15842-9-5-2-8-06-2-27-5-7-3-9-4"><path id="path14515-6-3-6-5-4-9-8-9-0-7-8-7-7" class="cls-21" d="M509.63,1106v20l-43.3-25v-20Z"/><path id="path6230-8-0-9-7-88-9-4-1-2-9-7-26-0-1-23-0-7" class="cls-18" d="M457.67,986v100l43.3,25V1011Z"/><path id="path6232-34-8-6-4-3-6-8-8-5-4-0-1-0-5-6-9-1" class="cls-22" d="M501,1011l8.66-5v100l-8.66,5Z"/><path id="path6234-26-2-8-92-35-8-5-3-6-2-8-8-9-5-8-1-6" class="cls-20" d="M457.67,986l8.66-5,43.3,25-8.66,5Z"/><path id="path6253-2-8-4-9-0-0-1-1-4-33-93-7-0-5-0-8-7" class="cls-22" d="M466.33,1001l8.66,5v70l-8.66,5Z"/><path id="path6255-0-3-4-7-56-6-3-0-6-0-9-53-2-0-2-6-9" class="cls-23" d="M475,1076l-8.66,5,26,15v-10Z"/><path id="path6257-16-4-5-0-2-4-4-6-2-5-0-2-9-8-2-2-5" class="cls-24" d="M475,1006v70l17.32,10v-70Z"/></g><g id="g15842-9-5-2-8-06-8-1-8-5-9-8-3-3"><path id="path14515-6-3-6-5-4-9-6-5-4-3-1-9-2-8" class="cls-21" d="M596.24,1156v20l-43.3-25v-20Z"/><path id="path6230-8-0-9-7-88-9-4-1-2-9-0-4-13-4-2-69-2-2" class="cls-18" d="M544.27,1036v100l43.3,25V1061Z"/><path id="path6232-34-8-6-4-3-6-8-8-5-4-6-6-5-4-9-2-9-4" class="cls-22" d="M587.58,1061l8.66-5v100l-8.66,5Z"/><path id="path6234-26-2-8-92-35-8-5-3-6-2-4-5-21-7-2-7-9-3" class="cls-20" d="M544.27,1036l8.66-5,43.3,25-8.66,5Z"/><path id="path6253-2-8-4-9-0-0-1-1-4-33-9-9-5-4-4-4-1-4" class="cls-22" d="M552.93,1051l8.66,5v70l-8.66,5Z"/><path id="path6255-0-3-4-7-56-6-3-0-6-0-6-8-3-7-7-43-0-3" class="cls-23" d="M561.59,1126l-8.66,5,26,15v-10Z"/><path id="path6257-16-4-5-0-2-4-4-6-2-5-8-7-4-6-2-2-3-4" class="cls-24" d="M561.59,1056v70l17.32,10v-70Z"/></g></g><g id="g15842-9-5-2-8-06-2-2-4-5-7-4-8-1"><path id="path14515-6-3-6-5-4-9-8-5-5-8-0-6-8-8" class="cls-21" d="M682.84,1206v20l-43.3-25v-20Z"/><path id="path6230-8-0-9-7-88-9-4-1-2-9-7-2-1-6-8-7-1-9" class="cls-18" d="M630.88,1086v100l43.3,25V1111Z"/><path id="path6232-34-8-6-4-3-6-8-8-5-4-0-5-95-1-7-9-8-1" class="cls-22" d="M674.18,1111l8.66-5v100l-8.66,5Z"/><path id="path6234-26-2-8-92-35-8-5-3-6-2-8-9-3-1-9-2-6-5" class="cls-20" d="M630.88,1086l8.66-5,43.3,25-8.66,5Z"/><path id="path6253-2-8-4-9-0-0-1-1-4-33-93-2-7-1-8-3-3-0" class="cls-22" d="M639.54,1101l8.66,5v70l-8.66,5Z"/><path id="path6255-0-3-4-7-56-6-3-0-6-0-9-9-3-2-7-5-4-2" class="cls-23" d="M648.2,1176l-8.66,5,26,15v-10Z"/><path id="path6257-16-4-5-0-2-4-4-6-2-5-0-7-0-4-5-5-3-3" class="cls-24" d="M648.2,1106v70l17.32,10v-70Z"/></g><g id="g15842-9-5-2-8-06-8-1-2-2-2-5-8-0-6"><path id="path14515-6-3-6-5-4-9-6-5-3-6-6-8-16-6-7" class="cls-21" d="M769.44,1256v20l-43.3-25v-20Z"/><path id="path6230-8-0-9-7-88-9-4-1-2-9-0-4-1-3-2-6-54-5-6" class="cls-18" d="M717.48,1136v100l43.3,25V1161Z"/><path id="path6232-34-8-6-4-3-6-8-8-5-4-6-6-2-4-4-0-7-7-82" class="cls-22" d="M760.78,1161l8.66-5v100l-8.66,5Z"/><path id="path6234-26-2-8-92-35-8-5-3-6-2-4-5-6-6-3-3-8-3-3" class="cls-20" d="M717.48,1136l8.66-5,43.3,25-8.66,5Z"/><path id="path6253-2-8-4-9-0-0-1-1-4-33-9-9-2-2-7-4-1-5-3" class="cls-22" d="M726.14,1151l8.66,5v70l-8.66,5Z"/><path id="path6255-0-3-4-7-56-6-3-0-6-0-6-8-7-7-5-9-0-3-3" class="cls-23" d="M734.8,1226l-8.66,5,26,15v-10Z"/><path id="path6257-16-4-5-0-2-4-4-6-2-5-8-7-1-39-3-2-4-9-7" class="cls-24" d="M734.8,1156v70l17.32,10v-70Z"/></g><g id="g15283-5-06-7-7-2-0"><g id="g15842-9-5-2-8-06-78-2-4-7-58-4"><path id="path14515-6-3-6-5-4-9-3-2-1-5-1-8" class="cls-21" d="M337.11,1663.08v20l-43.3-25v-20Z"/><path id="path6230-8-0-9-7-88-9-4-1-2-9-6-9-8-8-1-2" class="cls-18" d="M285.15,1543.08v100l43.3,25v-100Z"/><path id="path6232-34-8-6-4-3-6-8-8-5-4-87-3-3-3-1-3" class="cls-22" d="M328.45,1568.08l8.66-5v100l-8.66,5Z"/><path id="path6234-26-2-8-92-35-8-5-3-6-2-5-46-9-4-1-9" class="cls-20" d="M285.15,1543.08l8.66-5,43.3,25-8.66,5Z"/><path id="path6253-2-8-4-9-0-0-1-1-4-33-94-4-6-5-9-0" class="cls-22" d="M293.81,1558.08l8.66,5v70l-8.66,5Z"/><path id="path6255-0-3-4-7-56-6-3-0-6-0-21-48-8-1-94-1" class="cls-23" d="M302.47,1633.08l-8.66,5,26,15v-10Z"/><path id="path6257-16-4-5-0-2-4-4-6-2-5-1-37-6-3-4-7" class="cls-24" d="M302.47,1563.08v70l17.32,10v-70Z"/></g><g id="g15842-9-5-2-8-06-8-9-9-3-7-9-9"><path id="path14515-6-3-6-5-4-9-6-2-5-6-8-87-2" class="cls-21" d="M423.72,1713.08v20l-43.3-25v-20Z"/><path id="path6230-8-0-9-7-88-9-4-1-2-9-0-6-7-1-2-3-7" class="cls-18" d="M371.75,1593.08v100l43.3,25v-100Z"/><path id="path6232-34-8-6-4-3-6-8-8-5-4-6-8-56-6-7-2-8" class="cls-22" d="M415.06,1618.08l8.66-5v100l-8.66,5Z"/><path id="path6234-26-2-8-92-35-8-5-3-6-2-4-8-8-2-2-30-4" class="cls-20" d="M371.75,1593.08l8.66-5,43.3,25-8.66,5Z"/><path id="path6253-2-8-4-9-0-0-1-1-4-33-9-2-9-2-4-5-3" class="cls-22" d="M380.42,1608.08l8.66,5v70l-8.66,5Z"/><path id="path6255-0-3-4-7-56-6-3-0-6-0-6-1-40-6-6-9-7" class="cls-23" d="M389.08,1683.08l-8.66,5,26,15v-10Z"/><path id="path6257-16-4-5-0-2-4-4-6-2-5-8-10-0-3-3-6-3" class="cls-24" d="M389.08,1613.08v70l17.32,10v-70Z"/></g></g><g id="g15283-1-53-4-5-8-92-3"><g id="g15842-9-5-2-8-06-2-27-4-4-8-45-7"><path id="path14515-6-3-6-5-4-9-8-9-05-2-5-6-3" class="cls-21" d="M510.32,1763.08v20l-43.3-25v-20Z"/><path id="path6230-8-0-9-7-88-9-4-1-2-9-7-26-3-4-1-7-1" class="cls-18" d="M458.36,1643.08v100l43.3,25v-100Z"/><path id="path6232-34-8-6-4-3-6-8-8-5-4-0-1-5-8-7-0-0" class="cls-22" d="M501.66,1668.08l8.66-5v100l-8.66,5Z"/><path id="path6234-26-2-8-92-35-8-5-3-6-2-8-8-6-4-1-8-9" class="cls-20" d="M458.36,1643.08l8.66-5,43.3,25-8.66,5Z"/><path id="path6253-2-8-4-9-0-0-1-1-4-33-93-7-2-5-5-9-1" class="cls-22" d="M467,1658.08l8.66,5v70l-8.66,5Z"/><path id="path6255-0-3-4-7-56-6-3-0-6-0-9-53-5-9-3-0-2" class="cls-23" d="M475.68,1733.08l-8.66,5,26,15v-10Z"/><path id="path6257-16-4-5-0-2-4-4-6-2-5-0-2-3-0-8-4-3" class="cls-24" d="M475.68,1663.08v70l17.32,10v-70Z"/></g><g id="g15842-9-5-2-8-06-8-1-8-2-7-2-8-3"><path id="path14515-6-3-6-5-4-9-6-5-4-7-6-4-5-4" class="cls-21" d="M596.92,1813.08v20l-43.3-25v-20Z"/><path id="path6230-8-0-9-7-88-9-4-1-2-9-0-4-13-7-9-3-08-1" class="cls-18" d="M545,1693.08v100l43.3,25v-100Z"/><path id="path6232-34-8-6-4-3-6-8-8-5-4-6-6-5-8-3-5-0-7" class="cls-22" d="M588.26,1718.08l8.66-5v100l-8.66,5Z"/><path id="path6234-26-2-8-92-35-8-5-3-6-2-4-5-21-1-2-6-0-6" class="cls-20" d="M545,1693.08l8.66-5,43.3,25-8.66,5Z"/><path id="path6253-2-8-4-9-0-0-1-1-4-33-9-9-5-3-0-9-9-6" class="cls-22" d="M553.62,1708.08l8.66,5v70l-8.66,5Z"/><path id="path6255-0-3-4-7-56-6-3-0-6-0-6-8-3-0-1-2-7-8" class="cls-23" d="M562.28,1783.08l-8.66,5,26,15v-10Z"/><path id="path6257-16-4-5-0-2-4-4-6-2-5-8-7-4-4-3-1-0-6" class="cls-24" d="M562.28,1713.08v70l17.32,10v-70Z"/></g></g><g id="g15283-1-5-4-2-3-1-5-2"><g id="g15842-9-5-2-8-06-2-2-4-8-8-7-82-0"><path id="path14515-6-3-6-5-4-9-8-5-5-4-0-0-6-7" class="cls-21" d="M683.52,1863.08v20l-43.3-25v-20Z"/><path id="path6230-8-0-9-7-88-9-4-1-2-9-7-2-1-1-6-5-28-3" class="cls-18" d="M631.56,1743.08v100l43.3,25v-100Z"/><path id="path6232-34-8-6-4-3-6-8-8-5-4-0-5-95-8-0-9-2-8" class="cls-22" d="M674.86,1768.08l8.66-5v100l-8.66,5Z"/><path id="path6234-26-2-8-92-35-8-5-3-6-2-8-9-3-3-8-4-2-8" class="cls-20" d="M631.56,1743.08l8.66-5,43.3,25-8.66,5Z"/><path id="path6253-2-8-4-9-0-0-1-1-4-33-93-2-7-2-2-1-9-2" class="cls-22" d="M640.22,1758.08l8.66,5v70l-8.66,5Z"/><path id="path6255-0-3-4-7-56-6-3-0-6-0-9-9-3-3-9-1-5-5" class="cls-23" d="M648.88,1833.08l-8.66,5,26,15v-10Z"/><path id="path6257-16-4-5-0-2-4-4-6-2-5-0-7-0-1-1-9-8-0" class="cls-24" d="M648.88,1763.08v70l17.32,10v-70Z"/></g><g id="g15842-9-5-2-8-06-8-1-2-2-8-0-0-1-3"><path id="path14515-6-3-6-5-4-9-6-5-3-6-1-7-9-1-8" class="cls-21" d="M770.13,1913.08v20l-43.3-25v-20Z"/><path id="path6230-8-0-9-7-88-9-4-1-2-9-0-4-1-3-3-2-6-2-1" class="cls-18" d="M718.16,1793.08v100l43.3,25v-100Z"/><path id="path6232-34-8-6-4-3-6-8-8-5-4-6-6-2-4-8-9-1-8-6" class="cls-22" d="M761.47,1818.08l8.66-5v100l-8.66,5Z"/><path id="path6234-26-2-8-92-35-8-5-3-6-2-4-5-6-6-30-2-8-5-6" class="cls-20" d="M718.16,1793.08l8.66-5,43.3,25-8.66,5Z"/><path id="path6253-2-8-4-9-0-0-1-1-4-33-9-9-2-2-9-3-5-2-1" class="cls-22" d="M726.83,1808.08l8.66,5v70l-8.66,5Z"/><path id="path6255-0-3-4-7-56-6-3-0-6-0-6-8-7-7-8-3-3-1-0" class="cls-23" d="M735.49,1883.08l-8.66,5,26,15v-10Z"/><path id="path6257-16-4-5-0-2-4-4-6-2-5-8-7-1-39-8-4-3-92-4" class="cls-24" d="M735.49,1813.08v70l17.32,10v-70Z"/></g></g><path id="path13629-24-1-1-4-1-2-4" class="cls-1" d="M822.72,1000V700l562.92-325V675Z"/><path id="path13629-2-4-0-6-7-3-1-5" class="cls-11" d="M822.72,1000V700L259.81,375V675Z"/><path id="path14197-8-8-0-7-6-9-4" class="cls-1" d="M216.5,350,822.72,700l606.22-350L822.72,0Z"/><path id="path14261-8-4-5-2-6-3-4" class="cls-25" d="M216.5,350v50L822.72,750V700Z"/><path id="path14261-3-4-8-2-9-6-3-7" class="cls-12" d="M1428.94,350v50L822.72,750V700Z"/><path id="path7268-61-9-1-0-1-5-6-8" class="cls-26" d="M822.72,750v20l562.92-325V425Z"/><path id="path7268-61-8-3-6-9-7-8-0-9" class="cls-21" d="M822.72,750v20L485,565,259.81,425Z"/><path id="path16262-1-4-3-4-8" class="cls-15" d="M822.72,1000h86.6l519.62-300-43.3-25Z"/><g id="g15462-3-5-4-3-0-1-3"><g id="g15283-5-0-5-3-2-6-6"><g id="g15842-9-5-2-8-06-78-9-9-3-7-9-9"><path id="path14515-6-3-6-5-4-9-3-5-1-0-1-0-9" class="cls-21" d="M336.43,656v20l-43.3-25V631Z"/><path id="path6230-8-0-9-7-88-9-4-1-2-9-6-4-8-8-6-6-7" class="cls-18" d="M284.47,536V636l43.3,25V561Z"/><path id="path6232-34-8-6-4-3-6-8-8-5-4-87-2-6-2-1-9-1" class="cls-22" d="M327.77,561l8.66-5V656l-8.66,5Z"/><path id="path6234-26-2-8-92-35-8-5-3-6-2-5-4-9-4-2-1-2" class="cls-20" d="M284.47,536l8.66-5,43.3,25-8.66,5Z"/><path id="path6253-2-8-4-9-0-0-1-1-4-33-94-3-8-5-7-10-3" class="cls-22" d="M293.13,551l8.66,5v70l-8.66,5Z"/><path id="path6255-0-3-4-7-56-6-3-0-6-0-21-4-4-8-7-7-7" class="cls-23" d="M301.79,626l-8.66,5,26,15V636Z"/><path id="path6257-16-4-5-0-2-4-4-6-2-5-1-3-2-4-1-3-3" class="cls-24" d="M301.79,556v70l17.32,10V566Z"/></g><g id="g15842-9-5-2-8-06-8-9-2-6-3-7-2-5"><path id="path14515-6-3-6-5-4-9-6-2-3-2-4-4-6-5" class="cls-21" d="M423,706v20l-43.3-25V681Z"/><path id="path6230-8-0-9-7-88-9-4-1-2-9-0-6-4-0-2-9-8-4" class="cls-18" d="M371.07,586V686l43.3,25V611Z"/><path id="path6232-34-8-6-4-3-6-8-8-5-4-6-8-5-4-7-4-8-6" class="cls-22" d="M414.37,611l8.66-5V706l-8.66,5Z"/><path id="path6234-26-2-8-92-35-8-5-3-6-2-4-8-1-1-1-1-7-2" class="cls-20" d="M371.07,586l8.66-5L423,606l-8.66,5Z"/><path id="path6253-2-8-4-9-0-0-1-1-4-33-9-2-7-9-9-2-3-0" class="cls-22" d="M379.73,601l8.66,5v70l-8.66,5Z"/><path id="path6255-0-3-4-7-56-6-3-0-6-0-6-1-4-0-8-2-8-5" class="cls-23" d="M388.39,676l-8.66,5,26,15V686Z"/><path id="path6257-16-4-5-0-2-4-4-6-2-5-8-10-4-3-3-5-80-1" class="cls-24" d="M388.39,606v70l17.32,10V616Z"/></g></g><g id="g15283-1-53-6-6-4-0-9-6"><g id="g15842-9-5-2-8-06-2-27-5-7-4-6-7-9"><path id="path14515-6-3-6-5-4-9-8-9-0-7-3-3-3-0" class="cls-21" d="M509.63,756v20l-43.3-25V731Z"/><path id="path6230-8-0-9-7-88-9-4-1-2-9-7-26-0-1-2-3-88-6" class="cls-18" d="M457.67,636V736L501,761V661Z"/><path id="path6232-34-8-6-4-3-6-8-8-5-4-0-1-0-5-4-6-4-8" class="cls-22" d="M501,661l8.66-5V756L501,761Z"/><path id="path6234-26-2-8-92-35-8-5-3-6-2-8-8-9-5-6-3-1-8" class="cls-20" d="M457.67,636l8.66-5,43.3,25L501,661Z"/><path id="path6253-2-8-4-9-0-0-1-1-4-33-93-7-0-5-9-9-76-7" class="cls-22" d="M466.33,651l8.66,5v70l-8.66,5Z"/><path id="path6255-0-3-4-7-56-6-3-0-6-0-9-53-2-0-0-0-9-9" class="cls-23" d="M475,726l-8.66,5,26,15V736Z"/><path id="path6257-16-4-5-0-2-4-4-6-2-5-0-2-9-8-5-5-3-7" class="cls-24" d="M475,656v70l17.32,10V666Z"/></g><g id="g15842-9-5-2-8-06-8-1-8-5-9-6-4-32-2"><path id="path14515-6-3-6-5-4-9-6-5-4-3-1-8-7-0-2" class="cls-21" d="M596.24,806v20l-43.3-25V781Z"/><path id="path6230-8-0-9-7-88-9-4-1-2-9-0-4-13-4-2-6-8-8-6" class="cls-18" d="M544.27,686V786l43.3,25V711Z"/><path id="path6232-34-8-6-4-3-6-8-8-5-4-6-6-5-4-9-4-7-6-4" class="cls-22" d="M587.58,711l8.66-5V806l-8.66,5Z"/><path id="path6234-26-2-8-92-35-8-5-3-6-2-4-5-21-7-2-3-4-2-6" class="cls-20" d="M544.27,686l8.66-5,43.3,25-8.66,5Z"/><path id="path6253-2-8-4-9-0-0-1-1-4-33-9-9-5-4-4-9-6-7-5" class="cls-22" d="M552.93,701l8.66,5v70l-8.66,5Z"/><path id="path6255-0-3-4-7-56-6-3-0-6-0-6-8-3-7-7-4-3-2-1" class="cls-23" d="M561.59,776l-8.66,5,26,15V786Z"/><path id="path6257-16-4-5-0-2-4-4-6-2-5-8-7-4-6-2-5-5-0-2" class="cls-24" d="M561.59,706v70l17.32,10V716Z"/></g></g><g id="g15283-1-5-4-5-8-4-6-98-3"><g id="g15842-9-5-2-8-06-2-2-4-5-7-3-1-4-9"><path id="path14515-6-3-6-5-4-9-8-5-5-8-0-4-7-7-0" class="cls-21" d="M682.84,856v20l-43.3-25V831Z"/><path id="path6230-8-0-9-7-88-9-4-1-2-9-7-2-1-6-8-3-1-44-6" class="cls-18" d="M630.88,736V836l43.3,25V761Z"/><path id="path6232-34-8-6-4-3-6-8-8-5-4-0-5-95-1-7-2-7-6-7" class="cls-22" d="M674.18,761l8.66-5V856l-8.66,5Z"/><path id="path6234-26-2-8-92-35-8-5-3-6-2-8-9-3-1-9-1-8-0-3" class="cls-20" d="M630.88,736l8.66-5,43.3,25-8.66,5Z"/><path id="path6253-2-8-4-9-0-0-1-1-4-33-93-2-7-1-8-2-4-4-6" class="cls-22" d="M639.54,751l8.66,5v70l-8.66,5Z"/><path id="path6255-0-3-4-7-56-6-3-0-6-0-9-9-3-2-7-0-4-1-5" class="cls-23" d="M648.2,826l-8.66,5,26,15V836Z"/><path id="path6257-16-4-5-0-2-4-4-6-2-5-0-7-0-4-5-4-6-4-8" class="cls-24" d="M648.2,756v70l17.32,10V766Z"/></g><g id="g15842-9-5-2-8-06-8-1-2-2-2-5-4-9-6-2"><path id="path14515-6-3-6-5-4-9-6-5-3-6-6-8-1-6-5-5" class="cls-21" d="M769.44,906v20l-43.3-25V881Z"/><path id="path6230-8-0-9-7-88-9-4-1-2-9-0-4-1-3-2-6-5-8-59-3" class="cls-18" d="M717.48,786V886l43.3,25V811Z"/><path id="path6232-34-8-6-4-3-6-8-8-5-4-6-6-2-4-4-0-8-9-6-1" class="cls-22" d="M760.78,811l8.66-5V906l-8.66,5Z"/><path id="path6234-26-2-8-92-35-8-5-3-6-2-4-5-6-6-3-3-4-5-5-2" class="cls-20" d="M717.48,786l8.66-5,43.3,25-8.66,5Z"/><path id="path6253-2-8-4-9-0-0-1-1-4-33-9-9-2-2-7-4-3-6-3-1" class="cls-22" d="M726.14,801l8.66,5v70l-8.66,5Z"/><path id="path6255-0-3-4-7-56-6-3-0-6-0-6-8-7-7-5-9-4-5-7-5" class="cls-23" d="M734.8,876l-8.66,5,26,15V886Z"/><path id="path6257-16-4-5-0-2-4-4-6-2-5-8-7-1-39-3-2-7-0-6-2" class="cls-24" d="M734.8,806v70l17.32,10V816Z"/></g></g></g><g id="g6505-0-9-0-4-4-6-6-3"><path id="path6496-9-1-8-2-2-4-15-9" class="cls-8" d="M882,2061v50l86.6-50v-50Z"/><path id="path6498-7-7-8-7-7-01-6-3" class="cls-9" d="M882,2061l-43.3-25v50l43.3,25Z"/><path id="path6500-4-7-1-9-7-7-920-2" class="cls-10" d="M882,2061l86.6-50-43.3-25-86.6,50,43.3,25"/></g><path id="path14261-8-4-5-1-2-8-6" class="cls-11" d="M216.51,350v50L822.73,750V700Z"/><path id="path8065-4" class="cls-27" d="M1039.23,2025V675l389.71-225V1800Z"/><path id="path8067-2" class="cls-24" d="M1039.23,675,935.31,635l493.63-285-34.64,20,77.94,55Z"/><path id="path8069-5" class="cls-24" d="M952.63,625l86.6,50V2025l-86.6-50Z"/><g id="g15842-9-5-2-8-06-8-1-2-2-2-5-8-0-7-7"><path id="path14515-6-3-6-5-4-9-6-5-3-6-6-8-16-6-1-85" class="cls-27" d="M1013.25,1920v20l-43.3-25v-20Z"/><path id="path6230-8-0-9-7-88-9-4-1-2-9-0-4-1-3-2-6-54-5-5-2" class="cls-18" d="M961.29,1800v100l43.3,25V1825Z"/><path id="path6232-34-8-6-4-3-6-8-8-5-4-6-6-2-4-4-0-7-7-8-7" class="cls-22" d="M1004.59,1825l8.66-5v100l-8.66,5Z"/><path id="path6234-26-2-8-92-35-8-5-3-6-2-4-5-6-6-3-3-8-3-6-43" class="cls-20" d="M961.29,1800l8.66-5,43.3,25-8.66,5Z"/><path id="path6253-2-8-4-9-0-0-1-1-4-33-9-9-2-2-7-4-1-5-4-9" class="cls-22" d="M969.95,1815l8.66,5v70l-8.66,5Z"/><path id="path6255-0-3-4-7-56-6-3-0-6-0-6-8-7-7-5-9-0-3-7-34" class="cls-23" d="M978.61,1890l-8.66,5,26,15v-10Z"/><path id="path6257-16-4-5-0-2-4-4-6-2-5-8-7-1-39-3-2-4-9-5-4" class="cls-24" d="M978.61,1820v70l17.32,10v-70Z"/></g><g id="g15842-9-5-2-8-06-8-1-2-2-2-5-8-0-7-1-8"><path id="path14515-6-3-6-5-4-9-6-5-3-6-6-8-16-6-1-8-4" class="cls-27" d="M1013.25,1620v20l-43.3-25v-20Z"/><path id="path6230-8-0-9-7-88-9-4-1-2-9-0-4-1-3-2-6-54-5-5-9-9" class="cls-18" d="M961.29,1500v100l43.3,25V1525Z"/><path id="path6232-34-8-6-4-3-6-8-8-5-4-6-6-2-4-4-0-7-7-8-6-8" class="cls-22" d="M1004.59,1525l8.66-5v100l-8.66,5Z"/><path id="path6234-26-2-8-92-35-8-5-3-6-2-4-5-6-6-3-3-8-3-6-3-3" class="cls-20" d="M961.29,1500l8.66-5,43.3,25-8.66,5Z"/><path id="path6253-2-8-4-9-0-0-1-1-4-33-9-9-2-2-7-4-1-5-4-2-1" class="cls-22" d="M969.95,1515l8.66,5v70l-8.66,5Z"/><path id="path6255-0-3-4-7-56-6-3-0-6-0-6-8-7-7-5-9-0-3-7-1-4" class="cls-23" d="M978.61,1590l-8.66,5,26,15v-10Z"/><path id="path6257-16-4-5-0-2-4-4-6-2-5-8-7-1-39-3-2-4-9-5-6-7" class="cls-24" d="M978.61,1520v70l17.32,10v-70Z"/></g><g id="g15842-9-5-2-8-06-8-1-2-2-2-5-8-0-7-8-6"><path id="path14515-6-3-6-5-4-9-6-5-3-6-6-8-16-6-1-6-3" class="cls-27" d="M1013.25,1290v20l-43.3-25v-20Z"/><path id="path6230-8-0-9-7-88-9-4-1-2-9-0-4-1-3-2-6-54-5-5-0-4" class="cls-18" d="M961.29,1170v100l43.3,25V1195Z"/><path id="path6232-34-8-6-4-3-6-8-8-5-4-6-6-2-4-4-0-7-7-8-8-3" class="cls-22" d="M1004.59,1195l8.66-5v100l-8.66,5Z"/><path id="path6234-26-2-8-92-35-8-5-3-6-2-4-5-6-6-3-3-8-3-6-4-6" class="cls-20" d="M961.29,1170l8.66-5,43.3,25-8.66,5Z"/><path id="path6253-2-8-4-9-0-0-1-1-4-33-9-9-2-2-7-4-1-5-4-8-8" class="cls-22" d="M969.95,1185l8.66,5v70l-8.66,5Z"/><path id="path6255-0-3-4-7-56-6-3-0-6-0-6-8-7-7-5-9-0-3-7-3-2" class="cls-23" d="M978.61,1260l-8.66,5,26,15v-10Z"/><path id="path6257-16-4-5-0-2-4-4-6-2-5-8-7-1-39-3-2-4-9-5-3-3" class="cls-24" d="M978.61,1190v70l17.32,10v-70Z"/></g><g id="g15842-9-5-2-8-06-8-1-2-2-2-5-8-0-7-15-9"><path id="path14515-6-3-6-5-4-9-6-5-3-6-6-8-16-6-1-0-0" class="cls-27" d="M1013.25,940v20l-43.3-25V915Z"/><path id="path6230-8-0-9-7-88-9-4-1-2-9-0-4-1-3-2-6-54-5-5-6-3" class="cls-18" d="M961.29,820V920l43.3,25V845Z"/><path id="path6232-34-8-6-4-3-6-8-8-5-4-6-6-2-4-4-0-7-7-8-4-2" class="cls-22" d="M1004.59,845l8.66-5V940l-8.66,5Z"/><path id="path6234-26-2-8-92-35-8-5-3-6-2-4-5-6-6-3-3-8-3-6-0-0" class="cls-20" d="M961.29,820l8.66-5,43.3,25-8.66,5Z"/><path id="path6253-2-8-4-9-0-0-1-1-4-33-9-9-2-2-7-4-1-5-4-6-1" class="cls-22" d="M969.95,835l8.66,5v70l-8.66,5Z"/><path id="path6255-0-3-4-7-56-6-3-0-6-0-6-8-7-7-5-9-0-3-7-4-6" class="cls-23" d="M978.61,910l-8.66,5,26,15V920Z"/><path id="path6257-16-4-5-0-2-4-4-6-2-5-8-7-1-39-3-2-4-9-5-1-8" class="cls-24" d="M978.61,840v70l17.32,10V850Z"/></g><path id="path9055-2" class="cls-24" d="M944,980l95.26,45v50L944,1030Z"/><path id="path9057-2" class="cls-28" d="M952.63,925l86.6,50v50L944,980Z"/><path id="path9059-4" class="cls-29" d="M944,1030l8.66,15,86.6,50v-20Z"/><path id="path9055-3-6" class="cls-24" d="M944,1330l95.26,45v50L944,1380Z"/><path id="path9057-3-1" class="cls-28" d="M952.63,1275l86.6,50v50L944,1330Z"/><path id="path9059-6-4" class="cls-29" d="M944,1380l8.66,25,86.6,40v-20Z"/><path id="path9055-3-3-8" class="cls-24" d="M944,1680l95.26,45v50L944,1730Z"/><path id="path9057-3-9-2" class="cls-28" d="M952.63,1625l86.6,50v50L944,1680Z"/><path id="path9059-6-2-0" class="cls-29" d="M944,1730l8.66,15,86.6,50v-20Z"/><path id="path9057-1-7" class="cls-30" d="M935.31,635l103.92,40v50l-86.6-50Z"/><path id="path9124-13" class="cls-25" d="M1039.23,975l389.71-225,43.3,25-433,250Z"/><path id="path9126-6" class="cls-27" d="M1039.23,1025v50l433-250V775Z"/><path id="path9128-0" class="cls-31" d="M1039.23,1075v20l389.71-225V850Z"/><path id="path9124-8-7" class="cls-30" d="M1039.23,675l389.71-225,43.3,25-433,250Z"/><path id="path9124-3-1" class="cls-25" d="M1039.23,1325l389.71-225,43.3,25-433,250Z"/><path id="path9126-8-3" class="cls-27" d="M1039.23,1375v50l433-250v-50Z"/><path id="path9128-5-0" class="cls-31" d="M1039.23,1425v20l389.71-225v-20Z"/><path id="path9124-1-0" class="cls-25" d="M1039.23,1675l389.71-225,43.3,25-433,250Z"/><path id="path9126-0-6" class="cls-27" d="M1039.23,1725v50l433-250v-50Z"/><path id="path9128-7-1" class="cls-31" d="M1039.23,1775v20l389.71-225v-20Z"/><path id="path9055-5-4" class="cls-24" d="M935.31,635l103.92,40v50L935.31,685Z"/><path id="path9059-3-8" class="cls-29" d="M935.31,685l17.32,10,86.6,50V725Z"/><path id="path9126-5-3" class="cls-27" d="M1039.23,675v50l433-250V425Z"/><path id="path9128-9-6" class="cls-31" d="M1039.23,725v20l389.71-225V500Z"/></g></g></g></svg>